<?xml version="1.0" encoding="UTF-8"?>
<svg version="1.1" xmlns="http://www.w3.org/2000/svg" width="512" height="512">
<path d="M0 0 C3.74587156 4.53318179 4.57043972 8.11556476 4.45410156 13.84130859 C4.45468567 14.60296326 4.45526978 15.36461792 4.45587158 16.14935303 C4.45310023 18.64952274 4.42205506 21.14847788 4.390625 23.6484375 C4.38315919 25.38863473 4.37746786 27.12884041 4.37347412 28.86904907 C4.35824448 33.43621267 4.318986 38.00286271 4.2746582 42.56982422 C4.23364766 47.2352809 4.21545079 51.90082104 4.1953125 56.56640625 C4.1524889 65.71116241 4.08427018 74.8555384 4 84 C4.73532959 83.99274902 5.47065918 83.98549805 6.22827148 83.97802734 C7.20352783 83.9723877 8.17878418 83.96674805 9.18359375 83.9609375 C10.14579834 83.95368652 11.10800293 83.94643555 12.09936523 83.93896484 C21.83275637 84.14377486 30.10446327 87.10446327 37.078125 94.078125 C43.14810247 101.37229961 45.66206098 108.68495406 45.34375 118.16796875 C44.15310546 127.97725615 39.77618652 135.46239456 32.05078125 141.53125 C22.96708807 147.67032751 15.20668809 147 4 147 C4 168.12 4 189.24 4 211 C9.50042969 210.95359375 15.00085938 210.9071875 20.66796875 210.859375 C24.15431577 210.83893482 27.64058882 210.819679 31.12695312 210.8046875 C36.65974282 210.78078351 42.19226753 210.75251678 47.72485352 210.69824219 C52.18579829 210.65475465 56.64645886 210.63085665 61.10759926 210.62049103 C62.80886623 210.61310486 64.51011779 210.59868124 66.21126366 210.57707977 C68.59585454 210.5480063 70.97927383 210.54404552 73.36401367 210.54589844 C74.06604416 210.53151733 74.76807465 210.51713623 75.49137878 210.50231934 C80.26527038 210.54241016 82.64137687 211.63881818 86 215 C89.12694218 220.17988902 88.38837725 226.73984264 88.47851562 232.60742188 C88.6756501 239.02631285 89.62375031 243.48796461 94.1875 248.3125 C97.73560265 250.44136159 100.91017662 251.19438324 105 251 C110.22992948 249.43102116 112.97666921 247.53499619 116 243 C117.18815299 240.62369403 117.1549141 239.07296394 117.2109375 236.421875 C117.23929687 235.50792969 117.26765625 234.59398437 117.296875 233.65234375 C117.34853277 231.73325753 117.39292688 229.81396062 117.4296875 227.89453125 C117.60777967 222.60370975 117.85161343 218.46599328 121 214 C125.18328191 210.75694906 128.98297196 210.56523167 134.09155273 210.59594727 C134.89219147 210.58908401 135.6928302 210.58222076 136.51773071 210.57514954 C139.15653364 210.55689262 141.79474139 210.56071741 144.43359375 210.56640625 C146.27295627 210.56184385 148.11231708 210.5565381 149.95167542 210.55052185 C153.80419851 210.54159289 157.65651429 210.54401136 161.5090332 210.55395508 C166.43986026 210.5654434 171.36997103 210.54523439 176.300704 210.51603794 C180.09862291 210.49766927 183.89637039 210.49796974 187.69432259 210.50367546 C189.5119534 210.5038286 191.32959589 210.49779037 193.14718437 210.48538399 C195.69159416 210.47046328 198.23468354 210.48115824 200.77905273 210.49829102 C201.89907936 210.48378906 201.89907936 210.48378906 203.04173279 210.46899414 C208.15936908 210.54095261 211.06076423 211.77295054 215 215 C222.29615605 225.21461847 216.96838992 245.32835661 215.0703125 256.90625 C205.24954563 312.29555257 174.7436974 363.76371308 129 397 C127.95585937 397.76570313 126.91171875 398.53140625 125.8359375 399.3203125 C100.7401141 417.1925242 73.05689822 429.29118023 43 436 C42.14567383 436.19754883 41.29134766 436.39509766 40.41113281 436.59863281 C12.903483 442.71255571 -32.23280602 446.69421152 -58 433 C-60.1519437 429.77208445 -60.20086443 428.71599191 -60 425 C-61.2375 424.835 -62.475 424.67 -63.75 424.5 C-64.44609375 424.4071875 -65.1421875 424.314375 -65.859375 424.21875 C-70.1661992 423.6460688 -70.1661992 423.6460688 -73.875 425.5 C-76.85436436 427.60308072 -78.35885474 427.35875384 -82 427 C-85.21287192 425.91576843 -88.24716318 424.50638219 -91.3125 423.0625 C-92.18970703 422.65717041 -93.06691406 422.25184082 -93.97070312 421.83422852 C-106.89512487 415.7954441 -119.3770635 409.32041937 -131 401 C-132.51013672 399.91912109 -132.51013672 399.91912109 -134.05078125 398.81640625 C-139.89524694 394.53145491 -145.39266713 390.01497632 -150.71484375 385.09765625 C-152.7041142 383.27160799 -154.738515 381.5400992 -156.8125 379.8125 C-189.34642467 351.19047008 -212.23168339 308.14552181 -221 266 C-221.19464844 265.08669922 -221.38929688 264.17339844 -221.58984375 263.23242188 C-227.56681769 233.87493225 -227.70581875 201.20860095 -221 172 C-220.79632813 171.05817871 -220.59265625 170.11635742 -220.3828125 169.14599609 C-214.43988337 142.05889548 -203.26406982 115.53918337 -187 93 C-186.30390625 92.030625 -185.6078125 91.06125 -184.890625 90.0625 C-172.08687925 72.62761217 -157.39211392 55.98641928 -140 43 C-139.39639648 42.54705566 -138.79279297 42.09411133 -138.17089844 41.62744141 C-127.61679871 33.76750986 -116.68242353 27.04407706 -105 21 C-104.33629395 20.6498584 -103.67258789 20.2997168 -102.98876953 19.93896484 C-80.06246917 7.95723676 -25.28797731 -14.87528077 0 0 Z " fill="#010101" transform="translate(225,72)"/>
<path d="M0 0 C0.92941406 0.00491455 1.85882813 0.0098291 2.81640625 0.01489258 C26.81666141 0.40910162 64.03754755 4.88682373 83.26879883 20.71704102 C84.5625 22.3125 84.5625 22.3125 84.875 25.8125 C85.1951476 29.53132966 85.1951476 29.53132966 88.375 31.375 C91.38114184 32.62877555 91.38114184 32.62877555 93.4375 31.5 C94.13875 31.108125 94.84 30.71625 95.5625 30.3125 C101.70097568 29.78265263 105.24684681 30.64271899 110.3125 34.25 C110.91392822 34.65895508 111.51535645 35.06791016 112.13500977 35.48925781 C113.96019366 36.74243374 115.7629805 38.02281922 117.5625 39.3125 C119.06876953 40.37404297 119.06876953 40.37404297 120.60546875 41.45703125 C136.69710423 53.16201307 151.25857508 66.6683343 163.5625 82.3125 C164.35398437 83.28703125 165.14546875 84.2615625 165.9609375 85.265625 C193.67459709 120.06069287 211.55771333 166.41113637 211.8125 211.0625 C211.8434375 212.44115234 211.8434375 212.44115234 211.875 213.84765625 C211.92498285 222.48219345 211.92498285 222.48219345 208.5625 226.3125 C204.48528518 229.36423045 201.05083118 229.73106173 196.11010742 229.65307617 C195.3778595 229.65351425 194.64561157 229.65395233 193.89117432 229.65440369 C191.48316305 229.65232217 189.07585761 229.6290221 186.66796875 229.60546875 C184.99360026 229.59987051 183.31922685 229.59560149 181.64485168 229.59260559 C177.2471042 229.58117474 172.84965597 229.55172285 168.45202637 229.51849365 C163.9608973 229.48775473 159.46971967 229.4740921 154.97851562 229.45898438 C146.17304006 229.42685133 137.3678073 229.37567645 128.5625 229.3125 C128.58098999 230.73598755 128.58098999 230.73598755 128.59985352 232.18823242 C128.60944092 233.43967041 128.61902832 234.6911084 128.62890625 235.98046875 C128.64739624 237.8370813 128.64739624 237.8370813 128.66625977 239.73120117 C128.39931409 248.94490973 125.0202771 255.79238915 118.5625 262.3125 C111.20609395 268.38218485 104.00296452 270.84351906 94.46484375 270.62109375 C85.77572311 269.69721686 78.13238084 266.11067334 72.5625 259.3125 C67.20167804 250.803073 65.53841691 243.97910113 65.5546875 234.0703125 C65.55581543 233.17715332 65.55694336 232.28399414 65.55810547 231.36376953 C65.56028076 230.34839111 65.56028076 230.34839111 65.5625 229.3125 C64.64874603 229.32138245 63.73499207 229.33026489 62.79354858 229.3394165 C54.17180884 229.41964739 45.55019493 229.48050763 36.92816734 229.51974869 C32.49573178 229.54060139 28.06360533 229.56887633 23.63134766 229.61425781 C19.35194496 229.65779877 15.07283912 229.68165454 10.79323196 229.69200897 C9.16256667 229.69938559 7.53191716 229.7137906 5.90137863 229.73542023 C3.61277223 229.76456509 1.32538396 229.76845156 -0.96337891 229.76660156 C-2.26465729 229.77548401 -3.56593567 229.78436646 -4.90664673 229.79351807 C-10.05974766 229.09149664 -13.02583844 227.04276795 -16.2872467 223.04527283 C-17.76681864 219.53010447 -17.86528576 216.3381919 -17.84155273 212.58813477 C-17.84841599 211.82651031 -17.85527924 211.06488586 -17.86235046 210.28018188 C-17.88059978 207.77123183 -17.87678373 205.26290822 -17.87109375 202.75390625 C-17.87565654 201.00422462 -17.8809624 199.25454479 -17.88697815 197.50486755 C-17.89590563 193.84065462 -17.89349039 190.17665969 -17.88354492 186.51245117 C-17.87205699 181.82374678 -17.89226558 177.13579572 -17.92146206 172.44719028 C-17.93983506 168.8345616 -17.9395294 165.22211308 -17.93382454 161.60944939 C-17.93367145 159.88113282 -17.93970544 158.15280395 -17.95211601 156.42453194 C-17.96704507 154.00463145 -17.95633612 151.58611776 -17.93920898 149.16625977 C-17.95371094 148.10233757 -17.95371094 148.10233757 -17.96850586 147.016922 C-17.89459788 142.0135825 -16.56332136 139.17352279 -13.4375 135.3125 C-8.28766501 131.99435679 -1.1075737 132.95475232 4.81445312 132.921875 C11.84282807 132.74178852 15.2719592 131.48957387 20.375 126.5625 C22.94738157 121.68851386 22.9730267 117.68092233 21.4375 112.5625 C19.13594704 108.57314153 16.6585644 106.3605322 12.5625 104.3125 C11.03929884 104.19585847 9.51169464 104.13383816 7.984375 104.1015625 C7.07042969 104.07320313 6.15648437 104.04484375 5.21484375 104.015625 C3.29575753 103.96396723 1.37646062 103.91957312 -0.54296875 103.8828125 C-5.83379025 103.70472033 -9.97150672 103.46088657 -14.4375 100.3125 C-17.77775952 96.05079819 -17.87140539 92.06685477 -17.84155273 86.85375977 C-17.84841599 86.01410675 -17.85527924 85.17445374 -17.86235046 84.30935669 C-17.88061427 81.54069997 -17.87678156 78.77261014 -17.87109375 76.00390625 C-17.8756558 74.07486283 -17.88096145 72.14582104 -17.88697815 70.21678162 C-17.89590847 66.17594801 -17.89348706 62.13531204 -17.88354492 58.09448242 C-17.87205625 52.92153138 -17.89226562 47.74926307 -17.92146206 42.57640171 C-17.9398268 38.59319236 -17.93953103 34.61014652 -17.93382454 30.62690544 C-17.93367135 28.71996033 -17.93971342 26.81300411 -17.95211601 24.90609932 C-17.96702916 22.23717815 -17.9563469 19.56951707 -17.93920898 16.90063477 C-17.95371094 15.72450371 -17.95371094 15.72450371 -17.96850586 14.52461243 C-17.89912449 9.35280536 -16.82268798 6.43423159 -13.4375 2.3125 C-9.29303789 -0.51964258 -4.84798488 -0.03038799 0 0 Z " fill="#FD7358" transform="translate(300.4375,-0.3125)"/>
<path d="M0 0 C4.85477023 1.50542416 7.75447431 4.38625072 10.19018555 8.83520508 C12.09410098 13.92474928 11.46819168 19.63785721 11.40039062 24.99414062 C11.41134766 25.93580078 11.42230469 26.87746094 11.43359375 27.84765625 C11.42384521 28.69336182 11.41409668 29.53906738 11.40405273 30.41040039 C12.25061882 34.08902655 14.13161645 36.62769413 17 39 C19.85518877 39.60870679 21.87915036 39.82188628 24.7277832 39.77294922 C25.48929184 39.78357895 26.25080048 39.79420868 27.03538513 39.80516052 C29.54119359 39.83316552 32.04488855 39.81916629 34.55078125 39.8046875 C36.29243303 39.81593992 38.03406963 39.82982156 39.77568054 39.84622192 C44.35102654 39.88225817 48.92570432 39.88263376 53.50115967 39.87554932 C58.99543384 39.87447577 64.48951658 39.91775216 69.98365021 39.95358276 C78.32277995 40.00300774 86.66016405 39.99614164 95 40 C95 62.77 95 85.54 95 109 C86.585 109.495 86.585 109.495 78 110 C74.40198251 111.22859134 72.07002383 112.08285432 69 114 C68.36835938 114.3609375 67.73671875 114.721875 67.0859375 115.09375 C60.42529623 119.28853684 57.10454362 125.55529283 55 133 C53.90351263 143.04688428 55.45530052 151.55925337 61.5 159.75 C70.93319532 169.6034862 81.43625809 169.24645878 95 170 C95 192.77 95 215.54 95 239 C73.67472774 237.93373639 73.67472774 237.93373639 63.2890625 235.6484375 C58.98205276 234.79931206 54.31903455 233.90296522 50 235 C49.50886719 235.67160156 49.01773438 236.34320313 48.51171875 237.03515625 C48.01285156 237.68355469 47.51398438 238.33195313 47 239 C44.87890625 239.2421875 44.87890625 239.2421875 42.5625 238.875 C41.80066406 238.76929688 41.03882813 238.66359375 40.25390625 238.5546875 C37.87410822 237.96901797 36.04537309 237.35900628 34 236 C33.66073053 233.66752239 33.32759934 231.33414529 33 229 C29.83626895 225.94563249 25.81717173 224.52870186 21.8125 222.875 C8.46790849 217.18338085 -4.18397829 210.44935439 -16 202 C-16.98355469 201.30261719 -17.96710938 200.60523438 -18.98046875 199.88671875 C-26.4749984 194.42821915 -33.31403638 188.40267747 -40 182 C-40.55445801 181.47809082 -41.10891602 180.95618164 -41.68017578 180.41845703 C-55.87033027 167.0213171 -67.18473232 151.83171781 -77 135 C-77.34869141 134.41105957 -77.69738281 133.82211914 -78.05664062 133.21533203 C-93.11274798 107.52926742 -104.19798846 74.25992371 -104.02441406 44.22460938 C-104.02088928 43.4290564 -104.0173645 42.63350342 -104.01373291 41.81384277 C-104.00920105 41.21527466 -104.00466919 40.61670654 -104 40 C-103.05896927 39.99413376 -102.11793854 39.98826752 -101.14839172 39.98222351 C-92.2759471 39.92498695 -83.40374735 39.85222049 -74.53155231 39.76428509 C-69.97035301 39.71957562 -65.40924314 39.68032079 -60.84790039 39.65356445 C-56.44515414 39.62753718 -52.04275195 39.58713894 -47.64021873 39.53681374 C-45.96136953 39.5201411 -44.2824608 39.50862928 -42.60354042 39.50238609 C-40.25005735 39.49274915 -37.89745528 39.46469598 -35.54418945 39.43237305 C-34.50516983 39.43452568 -34.50516983 39.43452568 -33.44515991 39.4367218 C-29.14464124 39.35329855 -26.43532584 38.6064375 -23 36 C-19.70807225 30.80274437 -20.64237825 23.69275773 -20.609375 17.74804688 C-20.42663573 10.61613928 -18.64412085 7.04474522 -13.9375 1.625 C-9.37408512 -0.89944227 -5.09346569 -0.70884673 0 0 Z " fill="#42CA98" transform="translate(119,258)"/>
<path d="M0 0 C1.35105331 0.00153328 1.35105331 0.00153328 2.72940063 0.00309753 C3.41601776 0.00441177 4.10263489 0.00572601 4.81005859 0.00708008 C4.809263 1.01075119 4.80846741 2.0144223 4.80764771 3.04850769 C4.80404456 12.50967254 4.83183987 21.97029422 4.89033699 31.4312849 C4.91940306 36.29530308 4.93742498 41.15883884 4.93017578 46.02294922 C4.9235859 50.71766688 4.94604771 55.41143097 4.98861313 60.10595131 C4.9997505 61.89645302 5.00043876 63.68705137 4.99048233 65.47756004 C4.97831531 67.98739818 5.0033749 70.49432315 5.03710938 73.00390625 C5.018778 74.11305641 5.018778 74.11305641 5.00007629 75.24461365 C5.06895712 78.09052197 5.26643537 80.34273231 7.10616016 82.591012 C10.33174647 85.38795948 12.7056972 86.62255381 16.96240234 86.57348633 C18.37489258 86.58992188 18.37489258 86.58992188 19.81591797 86.60668945 C20.78335938 86.59444336 21.75080078 86.58219727 22.74755859 86.56958008 C30.01440242 86.50639013 34.80769933 86.68348093 40.81005859 91.00708008 C44.29820735 94.67410826 45.1028576 97.58104358 45.31005859 102.50708008 C45.12366162 107.40665761 44.16218547 110.28249466 40.81005859 114.00708008 C37.11019036 117.25847944 33.99444425 118.11695915 29.13427734 118.18286133 C28.22355469 118.20670898 27.31283203 118.23055664 26.37451172 118.25512695 C24.46848385 118.29782819 22.56216654 118.3292233 20.65576172 118.34887695 C14.77207444 118.52717051 11.30354404 119.10002013 6.81005859 123.00708008 C5.33256856 125.96206014 5.64440522 128.63711777 5.60473633 131.93530273 C5.59483673 132.64760544 5.58493713 133.35990814 5.57473755 134.09379578 C5.54310002 136.45287734 5.51835629 138.81197905 5.49365234 141.17114258 C5.47308475 142.80496754 5.45208834 144.43878716 5.43067932 146.07260132 C5.37543846 150.37650224 5.32603809 154.68045134 5.27783203 158.98443604 C5.21880825 164.14651774 5.15256922 169.30851124 5.08753204 174.47052002 C4.98949717 182.31598625 4.90065856 190.16150859 4.81005859 198.00708008 C-17.95994141 198.00708008 -40.72994141 198.00708008 -64.18994141 198.00708008 C-64.51994141 192.72708008 -64.84994141 187.44708008 -65.18994141 182.00708008 C-66.41348145 178.46755354 -67.31555481 176.06562308 -69.18994141 173.00708008 C-69.55087891 172.37415039 -69.91181641 171.7412207 -70.28369141 171.08911133 C-74.19852841 164.8862108 -80.29608248 161.25572076 -87.18994141 159.00708008 C-96.61183962 158.04566189 -105.37885515 157.99855219 -113.18994141 164.00708008 C-123.92014628 173.68819117 -124.44943494 183.21277508 -126.18994141 198.00708008 C-148.29994141 198.00708008 -170.40994141 198.00708008 -193.18994141 198.00708008 C-193.18994141 179.19454938 -193.18994141 179.19454938 -191.62744141 170.38208008 C-191.45180664 169.36992432 -191.27617187 168.35776855 -191.09521484 167.31494141 C-183.66862431 127.18326875 -163.13782095 91.27062299 -135.18994141 62.00708008 C-134.31724609 61.0815332 -133.44455078 60.15598633 -132.54541016 59.20239258 C-109.32778141 35.20291103 -78.86675266 18.05442031 -47.18994141 8.00708008 C-45.99884766 7.6280957 -44.80775391 7.24911133 -43.58056641 6.85864258 C-29.37474057 2.58403888 -14.86162104 -0.02187529 0 0 Z " fill="#425FA7" transform="translate(209.18994140625,84.992919921875)"/>
<path d="M0 0 C22.44 0 44.88 0 68 0 C68.99 8.91 68.99 8.91 70 18 C72.73045244 26.2924852 77.28211367 33.36567574 85.25 37.4375 C92.95291928 40.873002 101.23215316 41.50944684 109.34375 38.94140625 C117.11304124 35.32162283 122.8267715 31.02642421 126.2734375 23.0546875 C128.98039283 15.08740763 129.32207502 8.81302479 130 0 C152.44 0 174.88 0 198 0 C196.83606106 24.4427177 196.83606106 24.4427177 195.3125 31.625 C195.13879883 32.4814209 194.96509766 33.3378418 194.78613281 34.22021484 C186.49194119 73.29778835 166.4932515 108.33353334 139 137 C138.10410156 137.94875 137.20820313 138.8975 136.28515625 139.875 C129.39124557 147.00174466 121.93516712 153.09329921 114 159 C113.14664063 159.63679687 112.29328125 160.27359375 111.4140625 160.9296875 C94.99489417 172.76676234 77.02541758 181.67104852 57.94433594 188.32080078 C56.06394141 188.97766386 54.19192298 189.65835501 52.3203125 190.33984375 C44.14250003 193.13662161 35.96259629 194.89281987 27.4375 196.3125 C26.43340088 196.48410645 25.42930176 196.65571289 24.39477539 196.83251953 C18.59085429 197.73134235 12.97827888 198.07986221 7.10180664 198.04370117 C6.41512154 198.04054649 5.72843643 198.03739182 5.02094269 198.03414154 C3.34727627 198.02599375 1.67363216 198.01345682 0 198 C-0.00808685 197.10099472 -0.01617371 196.20198944 -0.02450562 195.27574158 C-0.10257807 186.78658561 -0.18990676 178.29758551 -0.28752708 169.80863094 C-0.33738612 165.44479972 -0.38371678 161.08099148 -0.421875 156.71704102 C-0.45885948 152.50238075 -0.50525451 148.28791784 -0.55806351 144.0734272 C-0.57653772 142.46879108 -0.59167119 140.86411277 -0.60334396 139.25941277 C-0.6203265 137.00468793 -0.6493888 134.75040822 -0.68115234 132.49584961 C-0.69447601 131.21455673 -0.70779968 129.93326385 -0.7215271 128.61314392 C-1.0157407 124.79576675 -1.66001563 121.58687451 -3 118 C-9.23855161 115.02027074 -16.46892985 115.67324586 -23.26171875 115.69726562 C-29.7974305 115.55108448 -33.10381169 114.39947355 -38 110 C-41.0190009 104.83848233 -41.64680275 100.82122471 -41 95 C-38.42710499 90.04479479 -35.01766074 86.50883037 -30 84 C-28.39204104 83.88298508 -26.77985835 83.82125599 -25.16796875 83.7890625 C-24.20439453 83.76070313 -23.24082031 83.73234375 -22.24804688 83.703125 C-20.21957881 83.65134534 -18.19090678 83.6069854 -16.16210938 83.5703125 C-9.0353173 83.46397044 -9.0353173 83.46397044 -3 80 C-0.58783278 76.39957668 -0.69414524 72.75722916 -0.68115234 68.56933594 C-0.66608391 67.45655273 -0.66608391 67.45655273 -0.65071106 66.32128906 C-0.61988551 63.87565873 -0.60284585 61.43013784 -0.5859375 58.984375 C-0.56722533 57.28614358 -0.54765188 55.58792146 -0.5272522 53.88970947 C-0.47593013 49.42473835 -0.43630483 44.95973708 -0.39910889 40.49462891 C-0.35202737 35.13472583 -0.29042919 29.77497233 -0.23126221 24.41519165 C-0.143049 16.27685481 -0.07328549 8.13854665 0 0 Z " fill="#FEB64F" transform="translate(229,298)"/>
<path d="M0 0 C0.92941406 0.00491455 1.85882813 0.0098291 2.81640625 0.01489258 C26.93223491 0.41099994 63.87636489 4.94141315 83.27661133 20.70532227 C85.38317887 23.33823173 84.74550901 26.07934084 84.5625 29.3125 C83.9025 29.3125 83.2425 29.3125 82.5625 29.3125 C82.5625 29.9725 82.5625 30.6325 82.5625 31.3125 C78.79576093 33.82365938 77.22590698 33.3971407 72.91748047 32.80224609 C69.42439947 32.07581851 66.32455565 30.64776578 63.125 29.125 C52.67323345 24.47990445 41.63018374 22.23439407 30.47314453 19.91943359 C28.7304464 19.55604259 26.99049689 19.1783743 25.25732422 18.77197266 C16.04834907 16.69707985 7.1430391 16.27055391 -2.4375 15.3125 C-2.4375 39.0725 -2.4375 62.8325 -2.4375 87.3125 C1.8525 87.3125 6.1425 87.3125 10.5625 87.3125 C21.06648724 89.03639597 28.04777303 93.52772662 34.4375 101.875 C39.43678033 108.88448046 39.2959728 117.05860988 38.5625 125.3125 C36.55761623 133.39206153 31.0491764 139.38052212 24.8125 144.625 C15.7559931 149.32741704 8.00362003 149.3125 -2.4375 149.3125 C-2.4375 170.7625 -2.4375 192.2125 -2.4375 214.3125 C6.15539062 214.24289063 6.15539062 214.24289063 14.921875 214.171875 C18.54949727 214.15143855 22.17704864 214.13218298 25.8046875 214.1171875 C31.56362637 214.0932692 37.32231103 214.06496397 43.08105469 214.01074219 C47.72354163 213.96730378 52.36575601 213.94336699 57.00843048 213.93299103 C58.78029929 213.92559604 60.55215307 213.91115537 62.32390594 213.88957977 C64.80448221 213.86057185 67.28393004 213.85654281 69.76464844 213.85839844 C70.86516541 213.83682678 70.86516541 213.83682678 71.98791504 213.81481934 C75.42454359 213.84266487 77.24604043 214.07250237 80.01971436 216.17601013 C81.99983639 218.91813486 82.04670224 220.56298771 82.03125 223.92578125 C82.04542969 225.00923828 82.05960937 226.09269531 82.07421875 227.20898438 C82.06644645 229.47460951 82.05863437 231.74023452 82.05078125 234.00585938 C82.13783944 240.68163966 82.54278717 244.89299891 86.5625 250.3125 C90.44755748 253.96209945 94.80762358 253.8178663 99.90234375 253.66015625 C103.7174205 253.16156325 105.78638218 251.94981193 108.5625 249.3125 C112.94406704 242.88690048 111.96771397 235.45225984 111.9140625 227.99023438 C111.92953125 226.95060547 111.945 225.91097656 111.9609375 224.83984375 C111.95586182 223.42819946 111.95586182 223.42819946 111.95068359 221.98803711 C112.83017568 218.14192628 114.50607889 216.7657868 117.5625 214.3125 C120.37889867 213.84215926 122.57801059 213.6749344 125.38208008 213.74487305 C126.15334229 213.74414291 126.92460449 213.74341278 127.71923828 213.74266052 C130.25756222 213.74613204 132.79402967 213.78496938 135.33203125 213.82421875 C137.0960744 213.8335485 138.86013053 213.84066385 140.62419128 213.84565735 C145.25890096 213.86471452 149.89282258 213.91380391 154.52722168 213.96917725 C159.25957581 214.02039759 163.99205773 214.04317732 168.72460938 214.06835938 C178.00425179 214.12192419 187.28331027 214.20722123 196.5625 214.3125 C194.56711646 193.33249377 194.56711646 193.33249377 190.5 172.6875 C190.20327393 171.49785645 189.90654785 170.30821289 189.60083008 169.08251953 C175.48667406 115.0446448 141.54435178 75.74370918 96.453125 44.6875 C94.5625 43.3125 94.5625 43.3125 92.5625 41.3125 C92.01455479 34.40839041 92.01455479 34.40839041 93.5625 31.3125 C96.7828943 29.70230285 100.06922527 29.85863044 103.5625 30.3125 C106.09583419 31.53578809 108.06263114 32.64785534 110.3125 34.25 C110.91392822 34.65895508 111.51535645 35.06791016 112.13500977 35.48925781 C113.96019366 36.74243374 115.7629805 38.02281922 117.5625 39.3125 C119.06876953 40.37404297 119.06876953 40.37404297 120.60546875 41.45703125 C136.69710423 53.16201307 151.25857508 66.6683343 163.5625 82.3125 C164.35398437 83.28703125 165.14546875 84.2615625 165.9609375 85.265625 C193.67459709 120.06069287 211.55771333 166.41113637 211.8125 211.0625 C211.8434375 212.44115234 211.8434375 212.44115234 211.875 213.84765625 C211.92498285 222.48219345 211.92498285 222.48219345 208.5625 226.3125 C204.48528518 229.36423045 201.05083118 229.73106173 196.11010742 229.65307617 C195.3778595 229.65351425 194.64561157 229.65395233 193.89117432 229.65440369 C191.48316305 229.65232217 189.07585761 229.6290221 186.66796875 229.60546875 C184.99360026 229.59987051 183.31922685 229.59560149 181.64485168 229.59260559 C177.2471042 229.58117474 172.84965597 229.55172285 168.45202637 229.51849365 C163.9608973 229.48775473 159.46971967 229.4740921 154.97851562 229.45898438 C146.17304006 229.42685133 137.3678073 229.37567645 128.5625 229.3125 C128.58098999 230.73598755 128.58098999 230.73598755 128.59985352 232.18823242 C128.60944092 233.43967041 128.61902832 234.6911084 128.62890625 235.98046875 C128.64739624 237.8370813 128.64739624 237.8370813 128.66625977 239.73120117 C128.39931409 248.94490973 125.0202771 255.79238915 118.5625 262.3125 C111.20609395 268.38218485 104.00296452 270.84351906 94.46484375 270.62109375 C85.77572311 269.69721686 78.13238084 266.11067334 72.5625 259.3125 C67.20167804 250.803073 65.53841691 243.97910113 65.5546875 234.0703125 C65.55581543 233.17715332 65.55694336 232.28399414 65.55810547 231.36376953 C65.56028076 230.34839111 65.56028076 230.34839111 65.5625 229.3125 C64.64874603 229.32138245 63.73499207 229.33026489 62.79354858 229.3394165 C54.17180884 229.41964739 45.55019493 229.48050763 36.92816734 229.51974869 C32.49573178 229.54060139 28.06360533 229.56887633 23.63134766 229.61425781 C19.35194496 229.65779877 15.07283912 229.68165454 10.79323196 229.69200897 C9.16256667 229.69938559 7.53191716 229.7137906 5.90137863 229.73542023 C3.61277223 229.76456509 1.32538396 229.76845156 -0.96337891 229.76660156 C-2.26465729 229.77548401 -3.56593567 229.78436646 -4.90664673 229.79351807 C-10.05974766 229.09149664 -13.02583844 227.04276795 -16.2872467 223.04527283 C-17.76681864 219.53010447 -17.86528576 216.3381919 -17.84155273 212.58813477 C-17.84841599 211.82651031 -17.85527924 211.06488586 -17.86235046 210.28018188 C-17.88059978 207.77123183 -17.87678373 205.26290822 -17.87109375 202.75390625 C-17.87565654 201.00422462 -17.8809624 199.25454479 -17.88697815 197.50486755 C-17.89590563 193.84065462 -17.89349039 190.17665969 -17.88354492 186.51245117 C-17.87205699 181.82374678 -17.89226558 177.13579572 -17.92146206 172.44719028 C-17.93983506 168.8345616 -17.9395294 165.22211308 -17.93382454 161.60944939 C-17.93367145 159.88113282 -17.93970544 158.15280395 -17.95211601 156.42453194 C-17.96704507 154.00463145 -17.95633612 151.58611776 -17.93920898 149.16625977 C-17.95371094 148.10233757 -17.95371094 148.10233757 -17.96850586 147.016922 C-17.89459788 142.0135825 -16.56332136 139.17352279 -13.4375 135.3125 C-8.28766501 131.99435679 -1.1075737 132.95475232 4.81445312 132.921875 C11.84282807 132.74178852 15.2719592 131.48957387 20.375 126.5625 C22.94738157 121.68851386 22.9730267 117.68092233 21.4375 112.5625 C19.13594704 108.57314153 16.6585644 106.3605322 12.5625 104.3125 C11.03929884 104.19585847 9.51169464 104.13383816 7.984375 104.1015625 C7.07042969 104.07320313 6.15648437 104.04484375 5.21484375 104.015625 C3.29575753 103.96396723 1.37646062 103.91957312 -0.54296875 103.8828125 C-5.83379025 103.70472033 -9.97150672 103.46088657 -14.4375 100.3125 C-17.77775952 96.05079819 -17.87140539 92.06685477 -17.84155273 86.85375977 C-17.84841599 86.01410675 -17.85527924 85.17445374 -17.86235046 84.30935669 C-17.88061427 81.54069997 -17.87678156 78.77261014 -17.87109375 76.00390625 C-17.8756558 74.07486283 -17.88096145 72.14582104 -17.88697815 70.21678162 C-17.89590847 66.17594801 -17.89348706 62.13531204 -17.88354492 58.09448242 C-17.87205625 52.92153138 -17.89226562 47.74926307 -17.92146206 42.57640171 C-17.9398268 38.59319236 -17.93953103 34.61014652 -17.93382454 30.62690544 C-17.93367135 28.71996033 -17.93971342 26.81300411 -17.95211601 24.90609932 C-17.96702916 22.23717815 -17.9563469 19.56951707 -17.93920898 16.90063477 C-17.95371094 15.72450371 -17.95371094 15.72450371 -17.96850586 14.52461243 C-17.89912449 9.35280536 -16.82268798 6.43423159 -13.4375 2.3125 C-9.29303789 -0.51964258 -4.84798488 -0.03038799 0 0 Z " fill="#010000" transform="translate(300.4375,-0.3125)"/>
<path d="M0 0 C6.82320638 1.53871852 13.0291736 3.90188105 19.46484375 6.609375 C24.97599994 8.84388126 29.16158185 9.94613938 35 8 C35 7.34 35 6.68 35 6 C38.96293489 6.56613356 41.93452696 7.3602871 45 10 C45.0825 11.2375 45.165 12.475 45.25 13.75 C45.4469357 16.58483758 45.72785235 17.70038205 47.6640625 19.83203125 C51.66139653 22.96068669 55.93558378 25.58670201 60.25 28.25 C67.07228785 32.50558095 72.99027952 37.6909045 79 43 C80.36898437 44.20076172 80.36898437 44.20076172 81.765625 45.42578125 C120.56981763 79.88533268 145.63714148 130.0513646 149 182 C149 184.97 149 187.94 149 191 C123.59 191 98.18 191 72 191 C72 190.67 72 190.34 72 190 C91.47 190 110.94 190 131 190 C128.93498914 165.21986963 125.30075228 142.18288402 116 119 C115.71431152 118.28714844 115.42862305 117.57429688 115.13427734 116.83984375 C107.78606697 98.83255998 98.05678731 82.25046536 86 67 C85.57283691 66.45714355 85.14567383 65.91428711 84.70556641 65.35498047 C73.18191114 50.86797394 59.95928296 37.89795916 45 27 C43.96746094 26.23429687 42.93492187 25.46859375 41.87109375 24.6796875 C28.81535654 15.30047203 14.43212509 8.00723758 0 1 C0 0.67 0 0.34 0 0 Z " fill="#F65950" transform="translate(348,23)"/>
<path d="M0 0 C22.44 0 44.88 0 68 0 C66.83606106 24.4427177 66.83606106 24.4427177 65.3125 31.625 C65.13879883 32.4814209 64.96509766 33.3378418 64.78613281 34.22021484 C56.49194119 73.29778835 36.4932515 108.33353334 9 137 C8.10410156 137.94875 7.20820313 138.8975 6.28515625 139.875 C-0.60875443 147.00174466 -8.06483288 153.09329921 -16 159 C-16.85335937 159.63679687 -17.70671875 160.27359375 -18.5859375 160.9296875 C-33.20934795 171.47214619 -49.60953149 180.94095462 -67 186 C-65.79797705 182.39393114 -65.11762837 182.22923072 -61.87109375 180.50390625 C-60.57776123 179.79923218 -60.57776123 179.79923218 -59.25830078 179.08032227 C-57.86200439 178.32900024 -57.86200439 178.32900024 -56.4375 177.5625 C-13.47153823 153.69292547 20.46156143 113.30064975 37 67 C37.25233398 66.30052246 37.50466797 65.60104492 37.76464844 64.88037109 C45.29606594 43.78960921 48.3087103 23.20314 51 1 C34.17 1 17.34 1 0 1 C0 0.67 0 0.34 0 0 Z " fill="#FAA343" transform="translate(359,298)"/>
<path d="M0 0 C0 26.07 0 52.14 0 79 C-7 79 -7 79 -9.875 76.6875 C-13.18280565 72.50409874 -13.12284726 69.42592275 -13.11352539 64.23364258 C-13.11367142 63.55045456 -13.11381744 62.86726654 -13.1139679 62.16337585 C-13.11327169 59.90706193 -13.10549296 57.65083074 -13.09765625 55.39453125 C-13.09579103 53.82940211 -13.09436762 52.26427239 -13.09336853 50.69914246 C-13.08955152 46.58096707 -13.07972818 42.46282698 -13.06866455 38.34466553 C-13.05843291 34.14189125 -13.05386715 29.93911127 -13.04882812 25.73632812 C-13.03810519 17.49086922 -13.02103854 9.245439 -13 1 C-10 0 -10 0 0 0 Z " fill="#415D7B" transform="translate(214,85)"/>
<path d="M0 0 C0 23.76 0 47.52 0 72 C-4.29 72 -8.58 72 -13 72 C-13.13583856 63.64592871 -13.24579186 55.29272336 -13.31087303 46.93784237 C-13.34211722 43.05783323 -13.3844595 39.17862214 -13.45263672 35.29907227 C-13.51808216 31.55129276 -13.55375799 27.8042782 -13.56926346 24.05597115 C-13.58030526 22.62980679 -13.6018684 21.20368186 -13.63438034 19.77784538 C-13.92648159 6.43029599 -13.92648159 6.43029599 -8.97549438 1.00733948 C-7 0 -7 0 0 0 Z " fill="#415D7B" transform="translate(214,211)"/>
<path d="M0 0 C5.86378423 -0.47867626 9.45980228 0.4150419 14 4 C17.48814876 7.66702818 18.29279901 10.57396351 18.5 15.5 C18.27384169 21.44473283 16.31726458 24.51108619 12.3125 28.8125 C8.72743492 30.65347937 4.9804703 30.75334693 1 31 C3 26 3 26 4.046875 23.65625 C5.89048979 18.51830715 5.97562034 12.73703443 4.13671875 7.578125 C3.17071585 5.65314468 2.13961891 3.82613633 1 2 C0.67 1.34 0.34 0.68 0 0 Z " fill="#415E7C" transform="translate(236,172)"/>
</svg>
